<svg id="_0490_cpu" xmlns="http://www.w3.org/2000/svg" viewBox="0 0 500 500" data-imageid="cpu-75" imageName="CPU" class="illustrations_image" style="width: 187px;"><defs><style>.cls-1_cpu-75{fill:#fff;}.cls-2_cpu-75{fill:#e6e6e6;}.cls-3_cpu-75{opacity:.2;}.cls-3_cpu-75,.cls-4_cpu-75{fill:none;}.cls-4_cpu-75{opacity:.3;}.cls-5_cpu-75{fill:#24285b;}.cls-6_cpu-75{fill:#ffd200;}.cls-7_cpu-75{fill:#68e1fd;}</style></defs><g id="bg_cpu-75" class="cls-4_cpu-75"><path class="cls-2_cpu-75" d="m417.97,157.92c43.96,29.25,69.31,85.18,63.93,145.19-4.53,50.57-33.75,106.43-120.29,112.83-88.33,6.53-278.67-37.07-329.04-126.89-40.79-72.72,3.3-191.29,98.94-203.89,67.05-8.83,200.61,15.62,286.45,72.75Z"/></g><g id="cpu_cpu-75"><path class="cls-7_cpu-75 targetColor" d="m402.9,374.76c0,9.99,8.1,18.07,18.09,18.07v24.37H86.6V82.81h334.38v273.88c-9.99,0-18.09,8.1-18.09,18.07Z" style="fill: rgb(124, 58, 237);"/><rect class="cls-6_cpu-75" x="160.46" y="54.88" width="25.23" height="81.55"/><rect class="cls-6_cpu-75" x="214.27" y="54.88" width="25.23" height="81.55"/><rect class="cls-6_cpu-75" x="268.09" y="54.88" width="25.23" height="81.55"/><rect class="cls-6_cpu-75" x="321.9" y="54.88" width="25.23" height="81.55"/><rect class="cls-6_cpu-75" x="160.46" y="363.57" width="25.23" height="81.55"/><rect class="cls-6_cpu-75" x="214.27" y="363.57" width="25.23" height="81.55"/><rect class="cls-6_cpu-75" x="268.09" y="363.57" width="25.23" height="81.55"/><rect class="cls-6_cpu-75" x="321.9" y="363.57" width="25.23" height="81.55"/><rect class="cls-6_cpu-75" x="395.53" y="128.5" width="25.23" height="81.55" transform="translate(577.42 -238.86) rotate(90)"/><rect class="cls-6_cpu-75" x="395.53" y="182.32" width="25.23" height="81.55" transform="translate(631.24 -185.05) rotate(90)"/><rect class="cls-6_cpu-75" x="395.53" y="236.13" width="25.23" height="81.55" transform="translate(685.05 -131.24) rotate(90)"/><rect class="cls-6_cpu-75" x="395.53" y="289.94" width="25.23" height="81.55" transform="translate(738.86 -77.42) rotate(90)"/><rect class="cls-6_cpu-75" x="86.83" y="128.5" width="25.23" height="81.55" transform="translate(268.73 69.83) rotate(90)"/><rect class="cls-6_cpu-75" x="86.83" y="182.32" width="25.23" height="81.55" transform="translate(322.54 123.64) rotate(90)"/><rect class="cls-6_cpu-75" x="86.83" y="236.13" width="25.23" height="81.55" transform="translate(376.36 177.46) rotate(90)"/><rect class="cls-6_cpu-75" x="86.83" y="289.94" width="25.23" height="81.55" transform="translate(430.17 231.27) rotate(90)"/><rect class="cls-5_cpu-75" x="135.34" y="131.54" width="236.92" height="236.92"/><path class="cls-1_cpu-75" d="m185.42,333.16l7.85,2.49c-1.2,4.38-3.2,7.63-6,9.75-2.8,2.12-6.35,3.19-10.65,3.19-5.32,0-9.7-1.82-13.13-5.46s-5.14-8.61-5.14-14.92c0-6.67,1.72-11.86,5.17-15.55,3.45-3.69,7.98-5.54,13.59-5.54,4.9,0,8.89,1.45,11.95,4.35,1.82,1.71,3.19,4.18,4.1,7.38l-8.01,1.91c-.47-2.08-1.46-3.72-2.97-4.92-1.5-1.2-3.33-1.81-5.48-1.81-2.97,0-5.38,1.07-7.23,3.2-1.85,2.13-2.78,5.59-2.78,10.37,0,5.07.91,8.68,2.74,10.83,1.82,2.15,4.19,3.23,7.11,3.23,2.15,0,4-.68,5.55-2.05s2.66-3.52,3.34-6.45Z"/><path class="cls-1_cpu-75" d="m200.22,347.9v-40.1h12.99c4.92,0,8.13.2,9.63.6,2.3.6,4.22,1.91,5.77,3.92,1.55,2.01,2.32,4.62,2.32,7.81,0,2.46-.45,4.53-1.34,6.21-.89,1.68-2.03,2.99-3.41,3.95s-2.78,1.59-4.2,1.9c-1.93.38-4.73.57-8.4.57h-5.28v15.12h-8.1Zm8.1-33.31v11.38h4.43c3.19,0,5.32-.21,6.4-.63,1.08-.42,1.92-1.08,2.53-1.97.61-.89.92-1.93.92-3.12,0-1.46-.43-2.66-1.29-3.61-.86-.95-1.94-1.54-3.25-1.78-.97-.18-2.91-.27-5.83-.27h-3.91Z"/><path class="cls-1_cpu-75" d="m237.52,307.81h8.1v21.72c0,3.45.1,5.68.3,6.7.35,1.64,1.17,2.96,2.48,3.95s3.09,1.49,5.35,1.49,4.03-.47,5.2-1.41c1.17-.94,1.87-2.09,2.11-3.46.24-1.37.36-3.64.36-6.81v-22.18h8.1v21.06c0,4.81-.22,8.21-.66,10.2-.44,1.99-1.24,3.66-2.42,5.03s-2.75,2.46-4.72,3.27-4.54,1.22-7.71,1.22c-3.83,0-6.73-.44-8.71-1.33-1.98-.88-3.54-2.03-4.69-3.45-1.15-1.41-1.91-2.89-2.27-4.44-.53-2.3-.79-5.69-.79-10.17v-21.39Z"/><g class="cls-3_cpu-75"><rect class="cls-1_cpu-75" x="159.05" y="154.49" width="17.46" height="17.46"/></g><g class="cls-3_cpu-75"><rect class="cls-1_cpu-75" x="185.24" y="154.49" width="103.65" height="17.46"/></g></g></svg>