<svg version="1.1" id="Layer_1" xmlns="http://www.w3.org/2000/svg" xmlns:xlink="http://www.w3.org/1999/xlink" x="0px" y="0px" viewBox="0 0 500 500" style="width: 187px;" xml:space="preserve" data-imageid="cybersecurity-1-98" imageName="Cybersecurity 1" class="illustrations_image">
<style type="text/css">
	.st0_cybersecurity-1-98{fill:#231F20;}
	.st1_cybersecurity-1-98{fill:#FFFFFF;}
	.st2_cybersecurity-1-98{fill:#D1D3D4;}
	.st3_cybersecurity-1-98{fill:#68E1FD;}
</style>
<g id="Laptop_cybersecurity-1-98">
	<path class="st0_cybersecurity-1-98" d="M90.8,391.6h318.4l0,0v9.1c0,2.7-2.2,4.8-4.8,4.8H95.6c-2.7,0-4.8-2.2-4.8-4.8V391.6L90.8,391.6z"/>
	<path class="st1_cybersecurity-1-98" d="M403.8,397.6H96.2c-3,0-5.4-2.4-5.4-5.5c0-0.6,0.1-1.2,0.3-1.7l27.6-81.6c2.5-7.3,9.3-12.1,16.9-12.1h228.7&#10;&#9;&#9;c7.7,0,14.5,4.9,16.9,12.1l27.6,81.6c1,2.9-0.6,5.9-3.4,6.9C404.9,397.5,404.4,397.6,403.8,397.6z"/>
	<path class="st0_cybersecurity-1-98" d="M403.8,398.2H96.2c-3.4,0-6.1-2.7-6.1-6.1c0-0.7,0.1-1.3,0.3-1.9l27.6-81.6c2.5-7.5,9.6-12.6,17.5-12.6h228.7&#10;&#9;&#9;c7.9,0,15,5.1,17.5,12.6l27.6,81.6c1.1,3.2-0.6,6.6-3.8,7.7C405.1,398.1,404.4,398.2,403.8,398.2z M135.6,297.4&#10;&#9;&#9;c-7.4,0-14,4.7-16.3,11.7l-27.6,81.6c-0.9,2.5,0.4,5.2,2.9,6.1c0.5,0.2,1.1,0.3,1.6,0.3h307.5c2.6,0,4.8-2.1,4.8-4.8&#10;&#9;&#9;c0-0.5-0.1-1.1-0.3-1.6l-27.6-81.6c-2.4-7-8.9-11.7-16.3-11.7L135.6,297.4z"/>
	<path class="st2_cybersecurity-1-98" d="M372.5,349.7H128.2c-2.5,0-4.5-2-4.5-4.5c0-0.4,0.1-0.9,0.2-1.3l9.8-33.1c0.6-2.1,2.6-3.5,4.8-3.5h222.7&#10;&#9;&#9;c2.5,0,4.6,1.6,5.3,4l9.9,33.3c0.6,2.1-0.6,4.3-2.7,4.9C373.2,349.7,372.9,349.8,372.5,349.7L372.5,349.7z M138.4,308.7&#10;&#9;&#9;c-1.6,0-2.9,1-3.4,2.5l-9.8,33.1c-0.5,1.6,0.4,3.4,2,3.9c0.3,0.1,0.6,0.1,1,0.1h244.3c0.8,0,1.6-0.4,2.1-1c0.5-0.7,0.7-1.6,0.4-2.4&#10;&#9;&#9;l-9.9-33.3c-0.5-1.8-2.1-3-4-3L138.4,308.7z"/>
	<path class="st2_cybersecurity-1-98" d="M292.4,386.6h-84.7c-2.6,0-4.8-2.1-4.8-4.8c0-0.3,0-0.7,0.1-1l4-18.4c0.7-3.3,3.7-5.7,7.1-5.7h71.7&#10;&#9;&#9;c3.4,0,6.4,2.4,7.2,5.7l4,18.4c0.6,2.6-1.1,5.1-3.6,5.7C293,386.5,292.7,386.6,292.4,386.6L292.4,386.6z M214.2,358.1&#10;&#9;&#9;c-2.8,0-5.1,1.9-5.8,4.6l-4,18.4c-0.2,1,0,2,0.7,2.8c0.6,0.8,1.6,1.3,2.6,1.3h84.7c1,0,2-0.5,2.6-1.3c0.6-0.8,0.9-1.8,0.7-2.8&#10;&#9;&#9;l-4-18.4c-0.6-2.7-3-4.6-5.8-4.6H214.2z"/>
	<path class="st0_cybersecurity-1-98" d="M129.1,120.8h241.6c3.6,0,6.5,2.9,6.5,6.5v162.9c0,3.6-2.9,6.5-6.5,6.5H129.1c-3.6,0-6.5-2.9-6.5-6.5V127.3&#10;&#9;&#9;C122.6,123.7,125.5,120.8,129.1,120.8z"/>
	<path class="st0_cybersecurity-1-98" d="M368.1,297.4H131.7c-5.4,0-9.8-4.4-9.8-9.8V129.9c0-5.4,4.4-9.8,9.8-9.8h236.4c5.4,0,9.8,4.4,9.8,9.8v157.7&#10;&#9;&#9;C377.9,293,373.5,297.4,368.1,297.4z M131.7,121.5c-4.6,0-8.4,3.8-8.4,8.4v157.7c0,4.6,3.8,8.4,8.4,8.4h236.4&#10;&#9;&#9;c4.6,0,8.4-3.8,8.4-8.4V129.9c0-4.6-3.8-8.4-8.4-8.4H131.7z"/>
</g>
<g id="Screen_cybersecurity-1-98">
	<rect x="135.7" y="132.9" class="st3_cybersecurity-1-98 targetColor" width="227.9" height="151.4" style="fill: rgb(124, 58, 237);"/>
	<path class="st1_cybersecurity-1-98" d="M151.9,95.1h196.3c2.5,0,4.5,2,4.5,4.5v184.7l0,0H147.3l0,0V99.6C147.3,97.1,149.4,95.1,151.9,95.1L151.9,95.1&#10;&#9;&#9;z"/>
	<path class="st0_cybersecurity-1-98" d="M352.7,285H147.3c-0.4,0-0.6-0.3-0.6-0.6l0,0V101.4c0-3.9,3.1-7,7-7h192.6c3.9,0,7,3.1,7,7v182.9&#10;&#9;&#9;C353.4,284.7,353.1,285,352.7,285C352.7,285,352.7,285,352.7,285z M148,283.7h204V101.4c0-3.1-2.5-5.7-5.7-5.7H153.7&#10;&#9;&#9;c-3.1,0-5.7,2.5-5.7,5.7L148,283.7z"/>
	<path class="st0_cybersecurity-1-98" d="M352.7,115.2H147.3c-0.4,0-0.7-0.2-0.7-0.6c0-0.4,0.2-0.7,0.6-0.7c0.1,0,0.1,0,0.2,0h205.3&#10;&#9;&#9;c0.4,0,0.7,0.2,0.7,0.6c0,0.4-0.2,0.7-0.6,0.7C352.8,115.2,352.7,115.2,352.7,115.2z"/>
	<path class="st2_cybersecurity-1-98" d="M165.4,128.9H220c2.8,0,5.1,2.3,5.1,5.1v21.6c0,2.8-2.3,5.1-5.1,5.1h-54.7c-2.8,0-5.1-2.3-5.1-5.1v-21.6&#10;&#9;&#9;C160.3,131.2,162.6,128.9,165.4,128.9z"/>
	<path class="st2_cybersecurity-1-98" d="M165.4,169.3H220c2.8,0,5.1,2.3,5.1,5.1v92.4c0,2.8-2.3,5-5.1,5h-54.7c-2.8,0-5.1-2.3-5.1-5v-92.4&#10;&#9;&#9;C160.3,171.6,162.6,169.3,165.4,169.3z"/>
	<path class="st2_cybersecurity-1-98" d="M238.7,128.9h95.9c2.8,0,5,2.3,5,5.1v132.9c0,2.8-2.3,5-5,5h-95.9c-2.8,0-5.1-2.3-5.1-5V133.9&#10;&#9;&#9;C233.7,131.2,235.9,128.9,238.7,128.9z"/>
	<circle class="st2_cybersecurity-1-98" cx="164.7" cy="104.4" r="3"/>
	<circle class="st2_cybersecurity-1-98" cx="176.5" cy="104.4" r="3"/>
	<circle class="st2_cybersecurity-1-98" cx="188.2" cy="104.4" r="3"/>
	<path class="st2_cybersecurity-1-98" d="M336.6,105.1h-32.1c-0.4,0-0.6-0.3-0.6-0.6s0.3-0.6,0.6-0.6c0,0,0,0,0,0h32.1c0.4,0,0.6,0.3,0.6,0.6&#10;&#9;&#9;c0,0,0,0,0,0C337.3,104.8,337,105.1,336.6,105.1L336.6,105.1z"/>
</g>
<g id="Shadow_cybersecurity-1-98">
	<ellipse class="st2_cybersecurity-1-98" cx="249.8" cy="328.7" rx="30.8" ry="6.3"/>
</g>
<g id="Shield_Icon_cybersecurity-1-98">
	<path class="st3_cybersecurity-1-98 targetColor" d="M328.5,147.9v3.3c0,16-0.1,32,0,48.1c0.4,31.4-9.4,59.3-27.7,84.5c-12.5,17.3-29.3,31-48.7,39.8&#10;&#9;&#9;c-1.3,0.7-2.7,0.7-4,0c-30.8-14.3-51.9-37.9-65.3-68.7c-7.7-17.4-11.5-36.3-11.2-55.4c0.2-16.1,0-32.2,0-48.3v-3.5&#10;&#9;&#9;c4.4,0,8.5,0.1,12.6,0c13.4-0.2,26.8-0.9,40-4.2c8.6-2.1,16.7-5.6,24.1-10.4c1-0.9,2.6-0.9,3.6,0c11.2,7.3,24.1,11.7,37.5,12.7&#10;&#9;&#9;c12.1,1.1,24.2,1.4,36.4,2C326.5,147.9,327.4,147.9,328.5,147.9z" style="fill: rgb(124, 58, 237);"/>
	<path class="st0_cybersecurity-1-98" d="M250,324.7c-0.8,0-1.6-0.2-2.3-0.6c-29.6-13.7-51.6-37-65.6-69c-7.7-17.5-11.5-36.5-11.2-55.6&#10;&#9;&#9;c0.2-11.2,0.1-22.5,0.1-33.5c0-5,0-9.9,0-14.8v-3.5c0-0.4,0.3-0.6,0.6-0.6h4.1c2.9,0,5.7,0,8.4,0c12.8-0.2,26.5-0.8,39.8-4.1&#10;&#9;&#9;c8.5-2.1,16.6-5.5,23.9-10.3c1.2-1,3-1,4.3,0c11.2,7.2,23.9,11.6,37.2,12.6c8.4,0.8,17,1.1,25.4,1.5c3.7,0.2,7.3,0.3,11,0.5&#10;&#9;&#9;c0.5,0,1.1,0,1.7,0h1.1c0.4,0,0.6,0.3,0.6,0.6v0v3.3c0,5,0,10,0,15c0,10.9-0.1,22.1,0.1,33.1c0.4,30.4-9,59-27.9,84.8&#10;&#9;&#9;c-12.6,17.4-29.5,31.2-49,40C251.6,324.5,250.8,324.7,250,324.7z M172.2,148.3v2.8c0,4.9,0,9.9,0,14.8c0,11,0.1,22.3-0.1,33.5&#10;&#9;&#9;c-0.3,18.9,3.5,37.7,11.1,55.1c13.8,31.8,35.7,54.8,64.9,68.4c1.1,0.6,2.4,0.6,3.5,0c19.3-8.8,36.1-22.4,48.5-39.6&#10;&#9;&#9;c18.7-25.6,28-53.9,27.6-84.1c-0.1-11-0.1-22.2-0.1-33.1c0-5,0-10,0-15v-2.7h-0.4c-0.6,0-1.2,0-1.8,0c-3.7-0.2-7.3-0.3-11-0.5&#10;&#9;&#9;c-8.4-0.4-17-0.7-25.4-1.5c-13.5-1.1-26.4-5.5-37.8-12.8c-0.8-0.7-2.1-0.7-2.9,0c-7.5,4.8-15.7,8.3-24.3,10.4&#10;&#9;&#9;c-13.4,3.4-27.2,4-40.1,4.2c-2.8,0-5.6,0-8.5,0L172.2,148.3z"/>
	<path class="st1_cybersecurity-1-98" d="M250,315.4c-0.1,0-0.2,0-0.3-0.1c-27.1-13-46.6-33.9-59.6-63.7c-7.2-16.4-10.8-34.1-10.5-52&#10;&#9;&#9;c0.2-11.3,0.1-22.6,0.1-33.6v-9.4c0-0.4,0.3-0.6,0.6-0.6c1.3,0,2.6,0,3.9,0c13.3-0.2,27.6-0.9,41.8-4.4c8.3-2,16.2-5.2,23.6-9.6&#10;&#9;&#9;c0.2-0.1,0.5-0.1,0.7,0c11.7,6.9,24.7,11,38.2,12.2c8.7,0.8,17.4,1.1,25.8,1.5l5.3,0.2c0.3,0,0.6,0.3,0.6,0.6v9.9&#10;&#9;&#9;c0,10.8-0.1,22,0.1,33c0.4,28.9-8.2,54.9-26.2,79.5c-11.3,15.6-26.4,28.2-43.9,36.4C250.2,315.3,250.1,315.4,250,315.4z M181,157.2&#10;&#9;&#9;v8.8c0,11,0.1,22.4-0.1,33.7c-0.3,17.7,3.3,35.2,10.4,51.4c12.8,29.4,32,50.1,58.7,63c17.2-8.2,32-20.5,43.1-35.9&#10;&#9;&#9;c17.8-24.4,26.3-50.2,25.9-78.8c-0.1-11.1-0.1-22.2-0.1-33.1v-9.3l-4.7-0.2c-8.5-0.4-17.2-0.7-25.9-1.5&#10;&#9;&#9;c-13.6-1.1-26.7-5.3-38.4-12.2c-7.4,4.3-15.3,7.5-23.6,9.5c-14.3,3.6-28.7,4.2-42.1,4.4C183.2,157.2,182.1,157.2,181,157.2z"/>
	<path class="st1_cybersecurity-1-98" d="M241.4,259L241.4,259c-2.5,0-4.9-1.1-6.5-2.9L208.2,227c-3.3-3.5-3.2-9.1,0.3-12.5s9.1-3.2,12.5,0.3&#10;&#9;&#9;c0.1,0.1,0.1,0.1,0.2,0.2l20.3,22.2l49.4-52.4c3.4-3.5,8.9-3.7,12.5-0.3c3.5,3.4,3.7,8.9,0.3,12.5l0,0l-55.9,59.3&#10;&#9;&#9;C246.1,258.1,243.8,259.1,241.4,259z"/>
</g>
</svg>