<svg id="_0515_data_storage" xmlns="http://www.w3.org/2000/svg" viewBox="0 0 500 500" data-imageid="data-storage-43" imageName="Data Storage" class="illustrations_image" style="width: 187px;"><defs><style>.cls-1_data-storage-43{fill:#fff;}.cls-2_data-storage-43{fill:#e6e6e6;}.cls-3_data-storage-43{fill:#000001;opacity:.09;}.cls-4_data-storage-43{fill:#24285b;}.cls-5_data-storage-43{fill:#ffd200;}.cls-6_data-storage-43{fill:#68e1fd;}</style></defs><g id="connecting_data-storage-43"><polygon class="cls-2_data-storage-43" points="253.36 471.68 167.62 471.68 167.62 465.12 246.8 465.12 246.8 348.47 253.36 348.47 253.36 471.68"/><rect class="cls-2_data-storage-43" x="250.08" y="465.12" width="78.83" height="6.56"/><circle class="cls-2_data-storage-43" cx="171.09" cy="468.65" r="12.91"/><circle class="cls-2_data-storage-43" cx="328.91" cy="468.65" r="12.91"/></g><path id="cloud_data-storage-43" class="cls-6_data-storage-43 targetColor" d="m412.13,204.9c-2.03,0-4.02.12-5.99.34.03-.94.07-1.88.07-2.84,0-47.09-38.18-85.27-85.27-85.27-1.21,0-2.41.04-3.61.09-1.73-54.85-46.71-98.79-101.98-98.79s-102.06,45.69-102.06,102.06c0,7.66.87,15.12,2.47,22.3-45.6,1.69-82.06,39.17-82.06,85.19s38.18,85.27,85.27,85.27h293.16c29.92,0,54.18-24.26,54.18-54.18s-24.26-54.18-54.18-54.18Z" style="fill: rgb(124, 58, 237);"/><g id="server_data-storage-43"><rect class="cls-5_data-storage-43" x="147.01" y="257.21" width="203.41" height="128.21"/><rect class="cls-3_data-storage-43" x="147.01" y="257.21" width="203.41" height="128.21"/><rect class="cls-5_data-storage-43" x="129.45" y="203.4" width="239.26" height="62.88"/><rect class="cls-4_data-storage-43" x="156.44" y="226.48" width="142.76" height="14.63"/><circle class="cls-1_data-storage-43" cx="329.69" cy="235.99" r="11.95"/><rect class="cls-5_data-storage-43" x="129.45" y="279.21" width="239.26" height="62.88"/><rect class="cls-4_data-storage-43" x="156.44" y="302.29" width="142.76" height="14.63"/><circle class="cls-1_data-storage-43" cx="329.69" cy="311.8" r="11.95"/><rect class="cls-5_data-storage-43" x="129.45" y="355.02" width="239.26" height="62.88"/><rect class="cls-4_data-storage-43" x="156.44" y="378.1" width="142.76" height="14.63"/><circle class="cls-1_data-storage-43" cx="329.69" cy="387.61" r="11.95"/></g></svg>