<svg id="_0158_data_maintenance" xmlns="http://www.w3.org/2000/svg" xmlns:xlink="http://www.w3.org/1999/xlink" viewBox="0 0 500 500" data-imageid="data-maintenance-88" imageName="Data Maintenance" class="illustrations_image" style="width: 187px;"><defs><style>.cls-1_data-maintenance-88{fill:url(#linear-gradient);}.cls-1_data-maintenance-88,.cls-2_data-maintenance-88,.cls-3_data-maintenance-88,.cls-4_data-maintenance-88,.cls-5_data-maintenance-88,.cls-6_data-maintenance-88,.cls-7_data-maintenance-88,.cls-8_data-maintenance-88,.cls-9_data-maintenance-88,.cls-10_data-maintenance-88,.cls-11_data-maintenance-88{stroke-width:0px;}.cls-2_data-maintenance-88{fill:url(#linear-gradient-4-data-maintenance-88);}.cls-3_data-maintenance-88{fill:url(#linear-gradient-2-data-maintenance-88);}.cls-4_data-maintenance-88{fill:url(#linear-gradient-3-data-maintenance-88);}.cls-5_data-maintenance-88{fill:url(#linear-gradient-8-data-maintenance-88);}.cls-6_data-maintenance-88{fill:url(#linear-gradient-7-data-maintenance-88);}.cls-7_data-maintenance-88{fill:url(#linear-gradient-5-data-maintenance-88);}.cls-8_data-maintenance-88{fill:url(#linear-gradient-6-data-maintenance-88);}.cls-9_data-maintenance-88{isolation:isolate;opacity:.24;}.cls-9_data-maintenance-88,.cls-11_data-maintenance-88{fill:#68e1fd;}.cls-10_data-maintenance-88{fill:#fff;}</style><linearGradient id="linear-gradient-data-maintenance-88" x1="656.65" y1="2191.6" x2="671.89" y2="2063.43" gradientTransform="translate(-491.24 2282.26) scale(1 -1)" gradientUnits="userSpaceOnUse"><stop offset="0" stop-color="#000" stop-opacity="0"/><stop offset=".99" stop-color="#000"/></linearGradient><linearGradient id="linear-gradient-2-data-maintenance-88" x1="761.45" y1="2294.62" x2="722" y2="1565.05" gradientTransform="translate(-491.24 2282.26) scale(1 -1)" gradientUnits="userSpaceOnUse"><stop offset="0" stop-color="#231f20" stop-opacity="0"/><stop offset="1" stop-color="#231f20"/></linearGradient><linearGradient id="linear-gradient-3-data-maintenance-88" x1="825.87" y1="1862.37" x2="710.02" y2="1857.2" gradientTransform="translate(-491.24 2282.26) scale(1 -1)" gradientUnits="userSpaceOnUse"><stop offset="0" stop-color="#231f20" stop-opacity="0"/><stop offset="1" stop-color="#231f20"/></linearGradient><linearGradient id="linear-gradient-4-data-maintenance-88" x1="830.45" y1="1885.91" x2="684.38" y2="1905.13" xlink:href="#linear-gradient-3-data-maintenance-88"/><linearGradient id="linear-gradient-5-data-maintenance-88" x1="805.83" y1="1874.7" x2="681.93" y2="1876.28" gradientTransform="translate(-471 2282.23) scale(1 -1)" gradientUnits="userSpaceOnUse"><stop offset="0" stop-color="#231f20" stop-opacity="0"/><stop offset="1" stop-color="#231f20"/></linearGradient><linearGradient id="linear-gradient-6-data-maintenance-88" x1="839.09" y1="1874.79" x2="978.69" y2="1875.92" gradientTransform="translate(-471 2282.23) scale(1 -1)" xlink:href="#linear-gradient-3-data-maintenance-88"/><linearGradient id="linear-gradient-7-data-maintenance-88" x1="753.69" y1="1887.55" x2="731.62" y2="1846.22" xlink:href="#linear-gradient-3-data-maintenance-88"/><linearGradient id="linear-gradient-8-data-maintenance-88" x1="632.03" y1="1898" x2="635.67" y2="1808.32" gradientTransform="translate(-471 2282.23) scale(1 -1)" xlink:href="#linear-gradient-3-data-maintenance-88"/></defs><g id="background_data-maintenance-88"><path class="cls-9_data-maintenance-88 targetColor" d="M103.81,77.57c-20.51,14.54-38.01,78.09-52.22,97.75-100.38,138.76-19.87,234.02,15.72,262.7,27.28,21.96,65.94,28.93,102.71,29.91,61.8,1.64,123.13-11.02,184.96-10.81,32.56.12,67.32,3.36,95.58-10.95,38.41-19.37,50.37-64.58,45.4-103.67-4.97-39.08-22.67-76.14-27.87-115.17-3.81-28.62-1.05-58.72-14.04-85.12-16.55-33.58-56.03-54.45-96.19-62.9-40.16-8.45-81.98-6.66-123.22-7.75-22.6-.68-36.88-12.49-58.58-14.7-24.86-2.57-53.19,7.21-72.25,20.7Z" style="fill: rgb(124, 58, 237);"/><path class="cls-9_data-maintenance-88 targetColor" d="M68.73,190.41c-3.35,35.18,5.77,71.3-2.26,105.72-2.83,12.12-7.75,23.77-9.3,36.17-1.55,12.4,1.03,26.18,10.62,34.19,5.46,4.53,12.52,6.59,18.73,10.04,6.21,3.45,12.05,9.34,11.73,16.39-.18,4.24-2.58,8.28-2,12.48.99,7.56,10.11,10.6,17.62,11.96,91.19,16.47,184.06,21.68,276.52,15.5,15.34-1.03,32.76-3.53,41.45-16.21,8.06-11.78,4.68-29.13-5.75-38.88-2.58-2.42-5.61-4.55-7.22-7.75-3.95-7.75,2.17-16.43,6.2-24.11,9.82-18.75,7.28-41.33,4.49-62.28-1.52-11.51-3.22-23.46-9.64-33.13-6.57-9.89-17.27-16.13-27.63-21.96-45.92-25.83-92.88-50.37-142.98-66.67-47.89-15.51-173.03-51.02-180.58,28.56Z" style="fill: rgb(124, 58, 237);"/></g><g id="folder_data-maintenance-88"><path class="cls-11_data-maintenance-88 targetColor" d="M218.37,108.02h-97.48c-15.49,0-28.06,12.55-28.07,28.04h0v61.58h163.73v-57.96l-38.18-31.67Z" style="fill: rgb(124, 58, 237);"/><path class="cls-1_data-maintenance-88" d="M218.37,108.02h-97.48c-15.49,0-28.06,12.55-28.07,28.04h0v61.58h163.73v-57.96l-38.18-31.67Z"/><rect class="cls-11_data-maintenance-88 targetColor" x="92.77" y="140.88" width="331.69" height="232.14" rx="36.55" ry="36.55" style="fill: rgb(124, 58, 237);"/><g id="S5qw0R_data-maintenance-88"><path class="cls-3_data-maintenance-88" d="M173.39,233.15v-2.7c.05-.13.1-.25.13-.39.45-3.45,1.47-6.8,3.02-9.92.95-2.17,2.29-4.14,3.95-5.83,1.43-1.59,3.68-2.16,5.7-1.43.68.25,1.39.43,2.08.67,4.4,1.66,9.24,1.73,13.69.21,4.48-1.58,8.1-4.26,9.73-9.04,1.88-5.36,2.1-11.16.63-16.65-.72-2.21-.12-4.63,1.54-6.25.78-.81,1.64-1.53,2.58-2.14,4.54-2.93,9.71-4.75,15.09-5.31,3.55-.44,5.46.76,6.82,4.09,0,.08,0,.15.09.23,2.21,5.06,5.57,9.04,10.81,11.07,9.37,3.42,19.76-1.2,23.49-10.45.69-1.55,1.73-2.92,3.05-3.99.77-.67,1.77-1.02,2.79-.98,3.28.14,6.52.85,9.56,2.11,3.68,1.34,6.94,3.62,9.45,6.63,1.49,1.6,1.9,3.92,1.06,5.94-.13.34-.25.68-.39,1.02-.86,1.92-1.39,3.98-1.55,6.08-.72,7.03,2.85,13.8,9.04,17.19,6.07,3.16,12.27,2.58,18.34-.14,2.31-1.2,5.13-.75,6.95,1.11.94.96,1.77,2.03,2.47,3.18,2.61,4.51,4.25,9.52,4.83,14.7.51,2.87-1.13,5.68-3.87,6.65-3.49,1.35-6.58,3.57-8.98,6.46-6.36,7.59-5.36,18.9,2.23,25.26,1.4,1.17,2.97,2.13,4.66,2.82,1.11.47,2.14,1.11,3.06,1.89,1.73,1.32,2.69,3.4,2.58,5.57-.18,5.87-2.24,11.53-5.88,16.15-2.37,3.06-6.44,4.28-10.1,3.01-3.98-1.45-8.28-1.77-12.44-.94-2.6.35-5.05,1.41-7.08,3.07-1.9,1.72-3.4,3.82-4.42,6.17-2.05,5.03-1.93,10.68.35,15.62.45,1.08.67,2.24.66,3.41-.08,2.08-1.14,3.99-2.85,5.17-4.82,3.73-10.59,6.03-16.65,6.65-1.37.22-2.76-.12-3.87-.94-1.19-.94-2.11-2.17-2.69-3.56-1.17-2.91-2.93-5.55-5.17-7.75-5.54-5.73-14.34-6.77-21.07-2.51-3.91,2.42-6.94,6.05-8.63,10.33-.77,2.28-2.78,3.91-5.17,4.2-1.05.18-2.12.2-3.18.06-4.67-.69-9.17-2.24-13.28-4.56-2.07-1.08-3.94-2.52-5.52-4.24-1.58-1.58-2.08-3.93-1.29-6.02.37-1.08.87-2.13,1.29-3.19,2.66-6.38,1.18-13.73-3.76-18.57-1.44-1.41-3.22-2.42-5.17-2.92-4.62-1.16-9.48-1.01-14.03.43-4.11,1.2-7.09.13-9.42-3.47-1.93-2.9-3.37-6.09-4.28-9.45-.49-1.86-.8-3.77-1.19-5.66v-1.18c0-.3.12-.59.15-.89.12-2.37,1.65-4.44,3.87-5.27,4.07-1.68,7.6-4.46,10.18-8.03,4.61-5.95,4.37-14.33-.58-19.99-2.62-3.1-5.95-5.52-9.7-7.05-1.24-.56-2.21-1.57-2.71-2.83-.46-.9-.74-1.91-1.06-2.88ZM294.26,256.4c-.06-21.26-17.35-38.44-38.61-38.37-21.26.06-38.44,17.35-38.37,38.61.06,21.17,17.21,38.32,38.39,38.37,21.25.06,38.53-17.11,38.59-38.36,0-.06,0-.13,0-.19v-.05Z"/></g></g><g id="tool_data-maintenance-88"><path class="cls-10_data-maintenance-88" d="M318.47,410.71H103.81c-3.72,0-20.18-2.12-20.18-4.71h0c0-2.58,16.46-4.7,20.18-4.7h214.65v9.42Z"/><path class="cls-11_data-maintenance-88 targetColor" d="M435.07,405.06v3.22c-.01,11.24-9.14,20.35-20.38,20.34h-126.88c-9.03,0-16.98-5.95-19.54-14.61-.56-1.86-.84-3.79-.84-5.73v-3.22c0-3.02.68-6.01,2.01-8.72,3.36-7.1,10.51-11.63,18.37-11.62h126.88c11.24,0,20.36,9.1,20.38,20.34Z" style="fill: rgb(124, 58, 237);"/><path class="cls-4_data-maintenance-88" d="M346.77,423.31v5.37h-58.95c-9.03,0-16.98-5.95-19.54-14.61,1.44-.42,2.92-.68,4.42-.76,0,0,5.73,10,13.15,10h60.93Z"/><path class="cls-11_data-maintenance-88 targetColor" d="M260.06,395.36v20.81c.01,2.81-2.03,5.21-4.8,5.64-.29.06-.59.09-.89.09-3.17,0-5.73-2.57-5.73-5.73h0v-20.81c.01-3.16,2.57-5.72,5.73-5.73.3,0,.6.03.89.09,2.77.44,4.81,2.84,4.8,5.64Z" style="fill: rgb(124, 58, 237);"/><path class="cls-2_data-maintenance-88" d="M361.85,391.28s-69.3-.89-77.38,0c-8.09.89-12.54,10.76-12.54,10.76-1.06-1.79-1.9-3.7-2.48-5.7,3.36-7.1,10.51-11.63,18.37-11.62h73.62l.41,6.56Z"/><rect class="cls-11_data-maintenance-88 targetColor" x="256.25" y="395.91" width="24.21" height="20.16" style="fill: rgb(124, 58, 237);"/><rect class="cls-7_data-maintenance-88" x="269.91" y="403.09" width="84.25" height="8.29" rx="4.15" ry="4.15"/><rect class="cls-8_data-maintenance-88" x="350.81" y="403.09" width="84.25" height="8.29" rx="4.15" ry="4.15"/><path class="cls-6_data-maintenance-88" d="M260.06,395.36v20.81c.01,2.81-2.03,5.21-4.8,5.64v-32.08c2.77.44,4.8,2.83,4.8,5.63Z"/><polygon class="cls-10_data-maintenance-88" points="110.83 401.29 105.22 396.14 75.42 400.17 75.42 410.02 102.31 415.18 110.61 410.26 110.83 401.29"/><polygon class="cls-5_data-maintenance-88" points="248.63 407.34 109.48 407.12 100.07 411.26 75.94 408.6 75.42 410.02 102.31 415.18 109.82 410.7 248.63 411.15 248.63 407.34"/></g></svg>