<svg id="_0257_personal_data_1" xmlns="http://www.w3.org/2000/svg" viewBox="0 0 500 500" data-imageid="personal-data-1-45" imageName="Personal Data 1" class="illustrations_image" style="width: 187px;"><defs><style>.cls-1_personal-data-1-45{fill:#fff;}.cls-2_personal-data-1-45{fill:#f4a28c;}.cls-3_personal-data-1-45{fill:#a5a5a5;}.cls-4_personal-data-1-45{opacity:.35;}.cls-4_personal-data-1-45,.cls-5_personal-data-1-45,.cls-6_personal-data-1-45,.cls-7_personal-data-1-45,.cls-8_personal-data-1-45{fill:none;}.cls-9_personal-data-1-45{fill:#ce8172;}.cls-10_personal-data-1-45{fill:#e6e6e6;}.cls-5_personal-data-1-45{opacity:.08;}.cls-6_personal-data-1-45{opacity:.5;}.cls-7_personal-data-1-45{opacity:.36;}.cls-8_personal-data-1-45{opacity:.31;}.cls-11_personal-data-1-45{fill:#24285b;}.cls-12_personal-data-1-45{fill:#000001;}.cls-13_personal-data-1-45{fill:#ffd200;}.cls-14_personal-data-1-45{fill:#68e1fd;}</style></defs><g id="card_personal-data-1-45"><rect class="cls-3_personal-data-1-45" x="28.42" y="198.66" width="443.65" height="248.94"/><rect class="cls-10_personal-data-1-45" x="27.93" y="183.6" width="444.15" height="248.94"/><rect class="cls-3_personal-data-1-45" x="231.76" y="227.51" width="134" height="23.57" transform="translate(-.29 .37) rotate(-.07)"/><g class="cls-6_personal-data-1-45"><rect class="cls-3_personal-data-1-45" x="231.82" y="273.31" width="134" height="23.57" transform="translate(-.35 .37) rotate(-.07)"/></g><g class="cls-7_personal-data-1-45"><rect class="cls-1_personal-data-1-45" x="231.9" y="319.06" width="199.09" height="62.41" transform="translate(-.43 .41) rotate(-.07)"/></g><path class="cls-3_personal-data-1-45" d="m27.93,132.01v51.6h444.15v-51.6H27.93Zm284.57,24.94c0,6.96-5.64,12.6-12.6,12.6h-100.78c-6.96,0-12.6-5.64-12.6-12.6h0c0-6.96,5.64-12.6,12.6-12.6h100.78c6.96,0,12.6,5.64,12.6,12.6h0Z"/><rect class="cls-14_personal-data-1-45 targetColor" x="225.78" y="52.41" width="50.23" height="47.62" style="fill: rgb(124, 58, 237);"/><path class="cls-14_personal-data-1-45 targetColor" d="m227.99,94.62l-22.92,51.03c-1.97,4.39,1.24,9.35,6.05,9.35h78.28c4.75,0,7.96-4.84,6.11-9.22l-21.63-51.16h-45.89Z" style="fill: rgb(124, 58, 237);"/><g class="cls-4_personal-data-1-45"><rect class="cls-1_personal-data-1-45" x="235.93" y="66.15" width="27.98" height="27.98"/></g><circle class="cls-3_personal-data-1-45" cx="263.82" cy="348.77" r="18.41"/></g><g id="photo_personal-data-1-45"><rect class="cls-1_personal-data-1-45" x="63.65" y="222.99" width="137.12" height="158.73" transform="translate(-.37 .16) rotate(-.07)"/><path class="cls-11_personal-data-1-45" d="m63.72,354.11s8.06-33.78,41.15-43.28c33.09-9.5,78.34-6.85,95.97,43.11l.03,27.69-137.12.17-.03-27.69Z"/><polygon class="cls-2_personal-data-1-45" points="127.29 263.83 119.26 307.48 145.2 323.29 139.69 277.33 127.29 263.83"/><g class="cls-8_personal-data-1-45"><path class="cls-9_personal-data-1-45" d="m140.86,284.49s-4.5-1.03-7.81-4.92c0,0,.15,8.12,8.87,16.35l-1.06-11.44Z"/></g><path class="cls-2_personal-data-1-45" d="m147.1,260.7s2.69,13.28,1.44,22.45c-.51,3.72-3.99,6.37-7.7,5.81-4.61-.69-10.64-2.97-12.95-9.91l-5.35-11.3s-3.11-7.2,3.86-13.51c6.97-6.32,19.47-1.7,20.7,6.47Z"/><path class="cls-2_personal-data-1-45" d="m148.36,269.16l4.34,4.76c1.07,1.18.56,3.07-.96,3.53l-5.04,1.55,1.66-9.85Z"/><path class="cls-13_personal-data-1-45" d="m122.96,281.77l-4.64-17.83s-10.27-1.79-7.16-8.49c3.11-6.71,7.2-2.23,7.38-9.93.18-7.7,6.43-9.25,10.86-4.91,4.43,4.34,2.38-1.71,7.91-2.52,5.53-.81,6.99,1.67,7.11,5.87.12,4.21,8.11-.26,10.15,5.06,2.04,5.32,2.32,10.49-11.45,11.31-13.77.83-3.93,12.19-20.17,21.43Z"/><path class="cls-1_personal-data-1-45" d="m119.26,307.48l7.97,74.32h36.97s-11.61-59.06-21.01-75.32c0,0-11.12-1.91-23.93,1Z"/><path class="cls-2_personal-data-1-45" d="m134.1,273.84s-.69-5.17-4.54-4.33c-3.85.84-2.9,8.32,2.47,8.42l2.06-4.09Z"/><path class="cls-1_personal-data-1-45" d="m119.26,307.48l1.46-7.93,12.38,6.32,9.26-6.32,2.85,7.93s-12,8.22-25.95,0Z"/><polygon class="cls-14_personal-data-1-45 targetColor" points="132.74 315.69 134.61 381.72 155.57 381.02 137.63 315.69 132.74 315.69" style="fill: rgb(124, 58, 237);"/><path class="cls-14_personal-data-1-45 targetColor" d="m133.1,305.86l-2,8.17c-.31,1.27.7,2.47,2,2.38l3.77-.25c1.51-.1,2.32-1.82,1.44-3.05l-5.21-7.25Z" style="fill: rgb(124, 58, 237);"/><g class="cls-5_personal-data-1-45"><path class="cls-12_personal-data-1-45" d="m63.72,354.11s12.61,26.33,47,12.44c34.39-13.89,71.54-19.06,90.14,3.91v11.17s-137.1.17-137.1.17l-.03-27.69Z"/></g></g></svg>